<svg width="275" height="56" viewBox="0 0 275 56" fill="none" xmlns="http://www.w3.org/2000/svg">
<path d="M88.488 44.576C93.336 44.576 97.752 42.512 100.92 39.2L96.696 35.264C94.632 37.616 91.704 39.104 88.488 39.104C82.392 39.104 77.256 33.824 77.256 27.488C77.256 21.2 82.392 15.92 88.488 15.92C91.656 15.92 94.632 17.408 96.648 19.76L100.92 15.776C97.752 12.512 93.336 10.448 88.488 10.448C79.08 10.448 71.16 18.224 71.16 27.488C71.16 36.752 79.08 44.576 88.488 44.576ZM121.629 44.576C126.477 44.576 130.893 42.512 134.061 39.2L129.837 35.264C127.773 37.616 124.845 39.104 121.629 39.104C115.533 39.104 110.397 33.824 110.397 27.488C110.397 21.2 115.533 15.92 121.629 15.92C124.797 15.92 127.773 17.408 129.789 19.76L134.061 15.776C130.893 12.512 126.477 10.448 121.629 10.448C112.221 10.448 104.301 18.224 104.301 27.488C104.301 36.752 112.221 44.576 121.629 44.576Z" fill="url(#paint0_linear)"/>
<path d="M156.008 30.176H165.464V38.048C163.016 39.92 159.464 41.12 156.392 41.12C149.288 41.12 143.288 34.88 143.288 27.488C143.288 20.144 149.288 13.904 156.392 13.904C159.992 13.904 164.264 15.536 166.664 18.08L169.208 15.488C166.136 12.368 160.952 10.448 156.392 10.448C147.272 10.448 139.496 18.224 139.496 27.488C139.496 36.752 147.272 44.576 156.392 44.576C160.952 44.576 166.136 42.608 169.208 39.536V26.624H156.008V30.176ZM192.158 44.576C201.326 44.576 209.006 36.752 209.006 27.488C209.006 18.224 201.326 10.448 192.158 10.448C183.038 10.448 175.262 18.224 175.262 27.488C175.262 36.752 183.038 44.576 192.158 44.576ZM192.158 41.12C185.054 41.12 179.054 34.88 179.054 27.488C179.054 20.144 185.054 13.904 192.158 13.904C199.262 13.904 205.214 20.144 205.214 27.488C205.214 34.88 199.262 41.12 192.158 41.12ZM218.492 40.448V11.024H214.748V44H236.492V40.448H218.492ZM242.621 44H253.757C264.221 44 271.613 37.136 271.613 27.488C271.613 17.84 264.221 11.024 253.757 11.024H242.621V44ZM246.365 40.592V14.432H253.757C262.013 14.432 267.821 19.856 267.821 27.488C267.821 35.168 262.013 40.592 253.757 40.592H246.365Z" fill="url(#paint1_linear)"/>
<path d="M28.1391 55.9516C42.5752 55.9516 54.4831 44.8718 55.9747 30.8709H35.395L28.1391 38.0728L17.9503 27.9247L28.1391 17.7514L35.572 25.1547H56C54.5842 11.0783 42.6257 0.0488281 28.1391 0.0488281C27.9115 0.0488281 27.6587 0.0488281 27.4312 0.0488281C27.1783 0.0740096 26.9508 0.0740096 26.698 0.0740096C26.4704 0.099191 26.2429 0.124372 25.9901 0.124372C25.7625 0.149554 25.535 0.174735 25.2822 0.199917C25.0546 0.225098 24.8271 0.25028 24.5995 0.275461C24.3467 0.300643 24.1192 0.325824 23.8916 0.376187C23.6641 0.401368 23.4366 0.451731 23.209 0.476913C22.9562 0.527276 22.7287 0.577638 22.5011 0.628001C22.2736 0.653183 22.0461 0.703546 21.8185 0.753908C21.591 0.804271 21.3887 0.879816 21.1612 0.930179C20.9336 0.980541 20.7061 1.05609 20.4786 1.10645C20.251 1.18199 20.0488 1.23236 19.8212 1.3079C19.5937 1.38344 19.3914 1.43381 19.1639 1.50935C18.9616 1.5849 18.7341 1.66044 18.5065 1.73598C18.3043 1.81153 18.0768 1.91225 17.8745 1.9878C17.6722 2.06334 17.4447 2.16407 17.2424 2.23961C17.0402 2.34034 16.8126 2.41588 16.6104 2.51661C16.4081 2.61734 16.2059 2.69288 16.0036 2.79361C15.8014 2.89433 15.5991 2.99506 15.3968 3.09578C15.1946 3.19651 14.9923 3.32242 14.7901 3.42314C14.5878 3.52387 14.3856 3.62459 14.1833 3.7505C14.0063 3.85123 13.8041 3.97713 13.6018 4.07786C13.4248 4.20377 13.2226 4.32967 13.0203 4.45558C12.8433 4.55631 12.6411 4.68221 12.4641 4.80812C12.2871 4.93403 12.0849 5.05993 11.9079 5.18584C11.7309 5.33693 11.5287 5.46284 11.3517 5.58875C11.1747 5.71465 10.9977 5.86574 10.8208 5.99165C10.6438 6.14274 10.4668 6.26864 10.2898 6.41973C10.1129 6.57082 9.93589 6.69673 9.7842 6.84782C9.60722 6.99891 9.43025 7.14999 9.27856 7.30108C9.10158 7.45217 8.94989 7.60326 8.77291 7.75435C8.62122 7.90544 8.44424 8.05653 8.29255 8.2328C8.14086 8.38389 7.96388 8.53497 7.81219 8.71124C7.6605 8.86233 7.5088 9.01342 7.35711 9.18969C7.20542 9.36596 7.05373 9.51705 6.90203 9.69332C6.75034 9.86959 6.59865 10.0207 6.47223 10.1969C6.32054 10.3732 6.16885 10.5495 6.04244 10.7258C5.89075 10.902 5.76433 11.0783 5.63792 11.2546C5.48623 11.4308 5.35982 11.6071 5.23341 11.7834C5.107 11.9848 4.9553 12.1611 4.82889 12.3374C4.70248 12.5388 4.57607 12.7151 4.47494 12.9165C4.34853 13.0928 4.22212 13.2943 4.09571 13.4705C3.99458 13.672 3.86817 13.8734 3.76704 14.0497C3.64063 14.2512 3.5395 14.4526 3.41309 14.6541C3.31196 14.8303 3.21084 15.0318 3.10971 15.2332C3.00858 15.4347 2.90745 15.6361 2.80632 15.8376C2.70519 16.039 2.60406 16.2405 2.50293 16.4671C2.40181 16.6686 2.32596 16.87 2.22483 17.0715C2.14898 17.2981 2.04786 17.4996 1.97201 17.701C1.87088 17.9277 1.79503 18.1291 1.71919 18.3557C1.64334 18.5572 1.56749 18.7838 1.49165 18.9853C1.4158 19.2119 1.33995 19.4134 1.26411 19.64C1.21354 19.8666 1.1377 20.0681 1.08713 20.2947C1.01129 20.5213 0.960722 20.748 0.884876 20.9494C0.834312 21.1761 0.783747 21.4027 0.733183 21.6293C0.682619 21.856 0.632054 22.0826 0.58149 22.3092C0.530926 22.5359 0.480361 22.7625 0.455079 22.9891C0.404515 23.2158 0.35395 23.4424 0.328668 23.669C0.303386 23.8957 0.252822 24.1475 0.22754 24.3741C0.202257 24.6007 0.176975 24.8274 0.151693 25.0792C0.126411 25.3058 0.101129 25.5324 0.0758465 25.7843C0.0758465 26.0109 0.0505643 26.2375 0.0252822 26.4893C0.0252822 26.716 0.0252822 26.9678 0 27.1944C0 27.4462 0 27.6729 0 27.9247C0 43.2854 12.7169 55.9516 28.1391 55.9516V55.9516Z" fill="url(#paint2_linear)"/>
<path d="M28.139 51.1669C39.9205 51.1669 49.7047 42.2274 51.1458 30.8706H35.395L28.139 38.0725L17.9503 27.9244L28.139 17.7511L35.572 25.1544H51.1711C49.7806 13.7221 39.9711 4.83301 28.139 4.83301C27.9368 4.83301 27.7345 4.83301 27.5323 4.83301C27.33 4.83301 27.1277 4.85819 26.9508 4.85819C26.7485 4.85819 26.5463 4.88337 26.344 4.88337C26.167 4.90855 25.9648 4.93373 25.7625 4.93373C25.5602 4.95892 25.3833 4.9841 25.181 5.00928C24.9788 5.03446 24.8018 5.05964 24.5995 5.08482C24.4226 5.13519 24.2203 5.16037 24.018 5.18555C23.8411 5.21073 23.6388 5.26109 23.4618 5.28627C23.2596 5.33664 23.0826 5.387 22.9056 5.41218C22.7034 5.46254 22.5264 5.51291 22.3241 5.56327C22.1472 5.61363 21.9702 5.664 21.7679 5.71436C21.5909 5.76472 21.414 5.81508 21.237 5.86545C21.06 5.91581 20.8578 5.99135 20.6808 6.04172C20.5038 6.09208 20.3268 6.16762 20.1499 6.24317C19.9729 6.29353 19.7959 6.36908 19.6189 6.41944C19.442 6.49498 19.265 6.57053 19.088 6.64607C18.911 6.72162 18.7341 6.79716 18.5824 6.8727C18.4054 6.94825 18.2284 7.02379 18.0514 7.09934C17.8998 7.20006 17.7228 7.27561 17.5458 7.35115C17.3941 7.45188 17.2171 7.52742 17.0654 7.62815C16.8885 7.70369 16.7368 7.80442 16.5598 7.87996C16.4081 7.98069 16.2311 8.08141 16.0794 8.18214C15.9277 8.28287 15.7508 8.38359 15.5991 8.45913C15.4474 8.55986 15.2957 8.68577 15.1187 8.78649C14.967 8.88722 14.8153 8.98795 14.6636 9.08867C14.5119 9.21458 14.3602 9.3153 14.2086 9.41603C14.0569 9.54194 13.9052 9.64266 13.7788 9.76857C13.6271 9.8693 13.4754 9.9952 13.3237 10.1211C13.1973 10.2218 13.0456 10.3477 12.8939 10.4736C12.7675 10.5996 12.6158 10.7003 12.4894 10.8262C12.3377 10.9521 12.2113 11.078 12.0596 11.2039C11.9332 11.3298 11.8067 11.4809 11.6803 11.6068C11.5286 11.7327 11.4022 11.8586 11.2758 12.0097C11.1494 12.1356 11.023 12.2615 10.8966 12.4126C10.7702 12.5385 10.6438 12.6896 10.5174 12.8155C10.3909 12.9666 10.2898 13.0925 10.1634 13.2436C10.037 13.3947 9.91059 13.5206 9.80946 13.6717C9.68305 13.8228 9.58192 13.9739 9.45551 14.125C9.35438 14.276 9.22797 14.402 9.12684 14.553C9.02571 14.7041 8.92458 14.8804 8.79817 15.0315C8.69704 15.1826 8.59591 15.3337 8.49479 15.4848C8.39366 15.6358 8.29253 15.8121 8.1914 15.9632C8.09027 16.1143 8.01442 16.2906 7.9133 16.4417C7.81217 16.5927 7.73632 16.769 7.63519 16.9201C7.53406 17.0964 7.45822 17.2475 7.35709 17.4237C7.28124 17.6 7.20539 17.7511 7.10427 17.9274C7.02842 18.1036 6.95257 18.2547 6.87673 18.431C6.80088 18.6073 6.72503 18.7835 6.64919 18.9346C6.57334 19.1109 6.49749 19.2872 6.42165 19.4634C6.37108 19.6397 6.29524 19.816 6.21939 19.9922C6.16883 20.1685 6.09298 20.3448 6.04242 20.521C5.96657 20.6973 5.916 20.8988 5.86544 21.075C5.78959 21.2513 5.73903 21.4276 5.68846 21.6038C5.6379 21.8053 5.58734 21.9816 5.53677 22.1578C5.48621 22.3593 5.43564 22.5356 5.41036 22.7118C5.3598 22.9133 5.30923 23.0895 5.28395 23.291C5.23339 23.4673 5.2081 23.6687 5.15754 23.845C5.13226 24.0464 5.10697 24.2227 5.05641 24.4242C5.03113 24.6004 5.00585 24.8019 4.98056 25.0033C4.95528 25.1796 4.93 25.3811 4.93 25.5825C4.90472 25.7588 4.87944 25.9602 4.85415 26.1617C4.85415 26.3631 4.82887 26.5394 4.82887 26.7409C4.82887 26.9423 4.80359 27.1438 4.80359 27.3452C4.80359 27.5215 4.80359 27.7229 4.80359 27.9244C4.80359 40.6662 15.3463 51.1669 28.139 51.1669V51.1669Z" fill="url(#paint3_linear)"/>
<path d="M15.953 29.6621L26.3946 40.0621C26.9002 40.5405 27.507 40.7671 28.139 40.7671C28.7711 40.7671 29.4031 40.5405 29.8835 40.0621L39.1368 30.8708H35.395L28.139 38.0727L17.9503 27.9246L28.139 17.7513L35.572 25.1546H39.2885L29.8835 15.762C29.4031 15.2835 28.7711 15.0569 28.139 15.0569C27.507 15.0569 26.8749 15.2835 26.3946 15.762L15.953 26.1871C14.9923 27.144 14.9923 28.68 15.953 29.6621V29.6621Z" fill="#EEDCA9"/>
<path d="M35.395 30.8708H32.1589L28.139 34.8494L21.1864 27.9245L28.139 20.9744L32.3359 25.1546H35.572L28.139 17.7512L17.9503 27.9245L28.139 38.0726L35.395 30.8708Z" fill="white" fill-opacity="0.25"/>
<defs>
<linearGradient id="paint0_linear" x1="102.5" y1="6" x2="102.5" y2="50" gradientUnits="userSpaceOnUse">
<stop stop-color="#FEE17E"/>
<stop offset="1" stop-color="#AE8D2C"/>
</linearGradient>
<linearGradient id="paint1_linear" x1="206" y1="6" x2="206" y2="50" gradientUnits="userSpaceOnUse">
<stop stop-color="#FEE17E"/>
<stop offset="1" stop-color="#AE8D2C"/>
</linearGradient>
<linearGradient id="paint2_linear" x1="25.5097" y1="-4.23202" x2="21.8729" y2="82.5696" gradientUnits="userSpaceOnUse">
<stop stop-color="#FEE17E"/>
<stop offset="1" stop-color="#A4813F"/>
</linearGradient>
<linearGradient id="paint3_linear" x1="27.0519" y1="8.15696" x2="26.5754" y2="55.901" gradientUnits="userSpaceOnUse">
<stop stop-color="#F7E2A0"/>
<stop offset="1" stop-color="#CBAB5F"/>
</linearGradient>
</defs>
</svg>
