<svg width="48" height="48" viewBox="0 0 48 48" fill="none" xmlns="http://www.w3.org/2000/svg">
<rect opacity="0.05" width="48" height="48" rx="12" fill="#202D3E"/>
<path d="M28.5498 27.0996H28.0664V29.0332H28.5498C29.0815 29.0332 29.5166 28.5981 29.5166 28.0664C29.5166 27.5347 29.0815 27.0996 28.5498 27.0996Z" fill="#202D3E"/>
<path d="M32.417 30H31.9336V30.9668H32.417C32.6878 30.9668 32.9004 30.7541 32.9004 30.4834C32.9004 30.2126 32.6878 30 32.417 30Z" fill="#202D3E"/>
<path d="M30 21.75C25.4657 21.75 21.75 25.4657 21.75 30C21.75 34.5343 25.4657 38.25 30 38.25C34.5343 38.25 38.25 34.5343 38.25 30C38.25 25.4657 34.5343 21.75 30 21.75ZM35.1418 35.1418C33.7608 36.5227 31.9347 37.2832 30 37.2832C28.0653 37.2832 26.2392 36.5227 24.8582 35.1418C23.4773 33.7608 22.7168 31.9347 22.7168 30C22.7168 28.0653 23.4773 26.2392 24.8582 24.8582C26.2392 23.4773 28.0653 22.7168 30 22.7168C31.9347 22.7168 33.7608 23.4773 35.1418 24.8582C36.5227 26.2392 37.2832 28.0653 37.2832 30C37.2832 31.9347 36.5227 33.7608 35.1418 35.1418Z" fill="#202D3E"/>
<path d="M34.4581 25.5419C33.2598 24.3436 31.6765 23.6836 30 23.6836C28.3235 23.6836 26.7402 24.3436 25.5419 25.5419C24.3436 26.7402 23.6836 28.3235 23.6836 30C23.6836 31.6765 24.3436 33.2598 25.5419 34.4581C26.7402 35.6564 28.3235 36.3164 30 36.3164C31.6765 36.3164 33.2598 35.6564 34.4581 34.4581C35.6564 33.2598 36.3164 31.6765 36.3164 30C36.3164 28.3235 35.6564 26.7402 34.4581 25.5419ZM30.4834 30.9668V32.9004H29.5166V30.9668C29.5166 30.4351 29.0815 30 28.5498 30H28.0664V32.9004H27.0996V26.1328H28.5498C29.6133 26.1328 30.4834 27.0029 30.4834 28.0664C30.4834 28.6465 30.2223 29.1685 29.8163 29.5166C30.2223 29.8647 30.4834 30.3867 30.4834 30.9668ZM32.417 31.9336H31.9336V33.8672H30.9668V29.0332H32.417C33.2195 29.0332 33.8672 29.681 33.8672 30.4834C33.8672 31.2858 33.2195 31.9336 32.417 31.9336Z" fill="#202D3E"/>
<g clip-path="url(#clip0)">
<path d="M19.1156 33.6676C18.6724 34.1108 17.9875 34.1108 17.5443 33.6676L10.3324 26.4557C9.8892 26.0125 9.8892 25.3276 10.3324 24.8844L25.6023 9.61442C26.0455 9.17123 26.7305 9.17123 27.1737 9.61442L34.3856 16.8263C34.8288 17.2695 34.8288 17.9545 34.3856 18.3977L19.1156 33.6676Z" fill="#D19E58"/>
<path d="M19.3977 33.3856C18.9545 33.8288 18.2695 33.8288 17.8264 33.3856L10.6144 26.2139C10.1712 25.7708 10.1712 25.0858 10.6144 24.6426L25.8844 9.33239C26.3276 8.8892 27.0125 8.8892 27.4557 9.33239L34.6676 16.5443C35.1108 16.9875 35.1108 17.6724 34.6676 18.1156L19.3977 33.3856Z" fill="url(#paint0_linear)"/>
<path d="M27.4557 9.33238L34.6676 16.5443C35.1108 16.9875 35.1108 17.6724 34.6676 18.1156L19.3977 33.3856C18.9545 33.8288 18.2695 33.8288 17.8263 33.3856" fill="url(#paint1_linear)"/>
<path d="M10.6144 26.2139C10.1712 25.7707 10.1712 25.0858 10.6144 24.6426L25.8844 9.33239C26.3276 8.8892 27.0125 8.8892 27.4557 9.33239" fill="url(#paint2_linear)"/>
<path d="M13.9182 18.1962C14.0072 18.1962 14.0794 16.9155 14.0794 15.3356C14.0794 13.7558 14.0072 12.475 13.9182 12.475C13.8292 12.475 13.757 13.7558 13.757 15.3356C13.757 16.9155 13.8292 18.1962 13.9182 18.1962Z" fill="url(#paint3_linear)"/>
<path d="M13.9182 15.4968C15.4981 15.4968 16.7788 15.4246 16.7788 15.3356C16.7788 15.2466 15.4981 15.1745 13.9182 15.1745C12.3383 15.1745 11.0576 15.2466 11.0576 15.3356C11.0576 15.4246 12.3383 15.4968 13.9182 15.4968Z" fill="url(#paint4_linear)"/>
<path d="M17.6065 11.7043C18.2039 11.1059 18.6626 10.5953 18.6311 10.5639C18.5996 10.5324 18.0898 10.992 17.4924 11.5904C16.8951 12.1888 16.4363 12.6994 16.4678 12.7309C16.4993 12.7623 17.0091 12.3027 17.6065 11.7043Z" fill="url(#paint5_linear)"/>
<path d="M17.465 11.7272C18.064 12.3242 18.5751 12.7825 18.6065 12.751C18.6379 12.7195 18.1778 12.21 17.5787 11.6131C16.9797 11.0162 16.4686 10.5578 16.4372 10.5893C16.4058 10.6209 16.8659 11.1303 17.465 11.7272Z" fill="url(#paint6_linear)"/>
<path d="M19.7326 21.4009C20.33 20.8025 20.7887 20.2919 20.7572 20.2605C20.7258 20.2291 20.2159 20.6887 19.6186 21.2871C19.0212 21.8855 18.5624 22.3961 18.5939 22.4275C18.6254 22.4589 19.1352 21.9993 19.7326 21.4009Z" fill="white"/>
<path d="M19.6066 21.3983C20.2056 21.9952 20.7167 22.4536 20.7481 22.422C20.7795 22.3905 20.3194 21.8811 19.7204 21.2841C19.1213 20.6872 18.6103 20.2289 18.5788 20.2604C18.5474 20.2919 19.0076 20.8014 19.6066 21.3983Z" fill="white"/>
<path d="M28.06 16.8264C28.06 18.3977 27.9795 19.687 27.8989 19.687C27.8183 19.687 27.7377 18.3977 27.7377 16.8264C27.7377 15.255 27.8183 13.9658 27.8989 13.9658C27.9795 13.9658 28.06 15.255 28.06 16.8264Z" fill="white"/>
<path d="M27.8989 16.9875C29.4787 16.9875 30.7595 16.9154 30.7595 16.8264C30.7595 16.7373 29.4787 16.6652 27.8989 16.6652C26.319 16.6652 25.0383 16.7373 25.0383 16.8264C25.0383 16.9154 26.319 16.9875 27.8989 16.9875Z" fill="white"/>
</g>
<defs>
<linearGradient id="paint0_linear" x1="22.641" y1="9" x2="22.641" y2="33.718" gradientUnits="userSpaceOnUse">
<stop stop-color="#FEE17E"/>
<stop offset="1" stop-color="#AE8D2C"/>
</linearGradient>
<linearGradient id="paint1_linear" x1="26.4132" y1="9.33238" x2="26.4132" y2="33.718" gradientUnits="userSpaceOnUse">
<stop stop-color="#FEE17E"/>
<stop offset="1" stop-color="#AE8D2C"/>
</linearGradient>
<linearGradient id="paint2_linear" x1="18.8689" y1="9" x2="18.8689" y2="26.2139" gradientUnits="userSpaceOnUse">
<stop stop-color="#FEE17E"/>
<stop offset="1" stop-color="#AE8D2C"/>
</linearGradient>
<linearGradient id="paint3_linear" x1="13.9182" y1="12.475" x2="13.9182" y2="18.1962" gradientUnits="userSpaceOnUse">
<stop stop-color="#FEE17E"/>
<stop offset="1" stop-color="#AE8D2C"/>
</linearGradient>
<linearGradient id="paint4_linear" x1="13.9182" y1="15.1745" x2="13.9182" y2="15.4968" gradientUnits="userSpaceOnUse">
<stop stop-color="#FEE17E"/>
<stop offset="1" stop-color="#AE8D2C"/>
</linearGradient>
<linearGradient id="paint5_linear" x1="17.4924" y1="11.5904" x2="17.6065" y2="11.7043" gradientUnits="userSpaceOnUse">
<stop stop-color="#FEE17E"/>
<stop offset="1" stop-color="#AE8D2C"/>
</linearGradient>
<linearGradient id="paint6_linear" x1="17.5787" y1="11.6131" x2="17.465" y2="11.7272" gradientUnits="userSpaceOnUse">
<stop stop-color="#FEE17E"/>
<stop offset="1" stop-color="#AE8D2C"/>
</linearGradient>
<clipPath id="clip0">
<rect width="25" height="25" fill="white" transform="translate(10 9)"/>
</clipPath>
</defs>
</svg>
