<svg width="48" height="48" viewBox="0 0 48 48" fill="none" xmlns="http://www.w3.org/2000/svg">
<rect opacity="0.05" width="48" height="48" rx="12" fill="#202D3E"/>
<g clip-path="url(#clip0)">
<path d="M37.125 27.5C36.642 27.5 36.25 27.108 36.25 26.625C36.25 23.2475 33.5025 20.5 30.125 20.5H21.6667V24.2917C21.6667 25.0617 20.7415 25.4513 20.1873 24.924L13.7707 18.799C13.598 18.6345 13.5 18.4058 13.5 18.1667C13.5 17.9275 13.598 17.6988 13.7707 17.5343L20.1873 11.4093C20.7427 10.8785 21.6667 11.274 21.6667 12.0417V15.8333H28.9583C33.9435 15.8333 38 19.8898 38 24.875V26.625C38 27.108 37.608 27.5 37.125 27.5Z" fill="url(#paint0_linear)"/>
<path d="M35.0145 18.1667H13.5C13.5 18.4058 13.598 18.6345 13.7707 18.799L20.1873 24.924C20.3623 25.0908 20.5758 25.1667 20.7847 25.1667C21.235 25.1667 21.6667 24.8178 21.6667 24.2917V20.5H30.125C33.5025 20.5 36.25 23.2475 36.25 26.625C36.25 27.108 36.642 27.5 37.125 27.5C37.608 27.5 38 27.108 38 26.625V24.875C38 22.2162 36.8473 19.8222 35.0145 18.1667Z" fill="url(#paint1_linear)"/>
<path d="M26.3333 35.9583V32.1667H19.0417C14.0565 32.1667 10 28.1102 10 23.125V21.375C10 20.892 10.392 20.5 10.875 20.5C11.358 20.5 11.75 20.892 11.75 21.375C11.75 24.7525 14.4975 27.5 17.875 27.5H26.3333V23.7083C26.3333 22.9407 27.2562 22.5428 27.8127 23.076L34.2293 29.201C34.402 29.3655 34.5 29.5942 34.5 29.8333C34.5 30.0725 34.402 30.3012 34.2293 30.4657L27.8127 36.5907C27.2573 37.1215 26.3333 36.726 26.3333 35.9583Z" fill="#202D3E"/>
<path d="M34.5 29.8333H12.9855C14.5897 31.2835 16.7142 32.1667 19.0417 32.1667H26.3333V35.9583C26.3333 36.4833 26.765 36.8333 27.2153 36.8333C27.4242 36.8333 27.6365 36.7587 27.8127 36.5907L34.2293 30.4657C34.402 30.3012 34.5 30.0725 34.5 29.8333Z" fill="#2D296F"/>
</g>
<defs>
<linearGradient id="paint0_linear" x1="25.75" y1="11.1661" x2="25.75" y2="27.5" gradientUnits="userSpaceOnUse">
<stop stop-color="#FEE17E"/>
<stop offset="1" stop-color="#AE8D2C"/>
</linearGradient>
<linearGradient id="paint1_linear" x1="25.75" y1="18.1667" x2="25.75" y2="27.5" gradientUnits="userSpaceOnUse">
<stop stop-color="#FEE17E"/>
<stop offset="1" stop-color="#AE8D2C"/>
</linearGradient>
<clipPath id="clip0">
<rect width="28" height="28" fill="white" transform="translate(10 10)"/>
</clipPath>
</defs>
</svg>
